# Blender v2.71 (sub 0) OBJ File: 'blades2.blend'
# www.blender.org
mtllib blades.mtl
v -0.001660 9.092050 -5.246747
v 0.781067 8.036810 -4.324142
v 0.002258 8.036810 -1.130612
v -0.781665 8.036810 -4.323044
v -0.001587 1.265223 -3.191845
v 0.770840 1.265223 -3.273596
v 0.002258 1.265223 -0.082435
v -0.771511 1.265223 -3.272512
v -0.001649 7.976655 -4.235970
v 0.779610 7.071797 -3.941161
v 0.002258 7.071797 -0.747969
v -0.780218 7.071797 -3.940064
v -0.001641 7.138965 -3.671583
v 0.778515 6.347047 -3.758657
v 0.002258 6.347047 -0.565718
v -0.779132 6.347047 -3.757562
v -0.001635 6.488099 -3.570938
v 0.777665 5.783933 -3.657423
v 0.002258 5.783933 -0.464681
v -0.778287 5.783933 -3.656329
v -9.206390 0.081267 -5.292203
v -8.164171 0.881248 -4.369598
v -8.151360 0.102544 -1.176068
v -8.138462 -0.681273 -4.368500
v -1.380624 0.210099 -3.237301
v -1.393331 0.982421 -3.319052
v -1.380688 0.213944 -0.127890
v -1.367958 -0.559722 -3.317968
v -8.091148 0.099628 -4.281426
v -7.199264 0.895667 -3.986616
v -7.186476 0.118420 -0.793425
v -7.173604 -0.663951 -3.985520
v -7.253571 0.113416 -3.717039
v -6.474595 0.906495 -3.804113
v -6.461825 0.130342 -0.611174
v -6.448970 -0.650941 -3.803017
v -6.602794 0.124129 -3.616394
v -5.911542 0.914908 -3.702879
v -5.898786 0.139606 -0.510136
v -5.885946 -0.640834 -3.701785
v 9.228033 0.140391 -5.247169
v 8.166250 -0.632406 -4.323701
v 8.172906 0.149824 -1.131015
v 8.179438 0.930271 -4.324291
v 1.401538 0.208587 -3.192135
v 1.395018 -0.563900 -3.273050
v 1.401588 0.208099 -0.082722
v 1.408034 0.978397 -3.273633
v 8.112705 0.150885 -4.236375
v 7.201293 -0.622392 -3.940706
v 7.207937 0.158381 -0.748355
v 7.214457 0.937381 -3.941294
v 7.275060 0.158556 -3.671973
v 6.476584 -0.614984 -3.758191
v 6.483219 0.164694 -0.566092
v 6.489729 0.942608 -3.758778
v 6.624219 0.164151 -3.571316
v 5.913500 -0.609272 -3.656948
v 5.920127 0.169555 -0.465045
v 5.926630 0.946625 -3.657534
v -0.197724 -8.124761 -6.217329
v -0.891144 -7.191677 -5.110119
v 0.189715 -7.543938 -2.025832
v 0.664515 -7.170920 -5.257175
v -0.020305 -0.582635 -3.290439
v -0.797008 -0.583673 -3.298059
v 0.273444 -0.935803 -0.215145
v 0.738364 -0.563187 -3.443197
v -0.103733 -7.131470 -5.090248
v -0.855405 -6.276466 -4.621202
v 0.223972 -6.628709 -1.537111
v 0.697364 -6.255747 -4.767984
v -0.051778 -6.363369 -4.436352
v -0.838624 -5.577182 -4.357973
v 0.239639 -5.929411 -1.274027
v 0.711973 -5.556492 -4.504548
v -0.043747 -5.728201 -4.262415
v -0.829468 -5.029246 -4.193565
v 0.247929 -5.381464 -1.109735
v 0.719442 -5.008579 -4.339982
v -0.013933 0.140734 2.243599
vt 0.991533 0.859295
vt 0.931861 0.875690
vt 0.819421 0.817154
vt 0.770142 0.285703
vt 0.653315 0.350364
vt 0.562252 0.353706
vt 0.576105 0.625946
vt 0.492047 0.626052
vt 0.653962 0.901348
vt 0.505098 0.969731
vt 0.038270 0.983366
vt 0.036583 0.915510
vt 0.644948 0.285196
vt 0.494024 0.353541
vt 0.431566 0.626126
vt 0.562899 0.898233
vt 0.770964 0.965539
vt 0.645787 0.966300
vt 0.561389 0.970639
vt 0.494676 0.898566
vt 0.560542 0.281047
vt 0.442628 0.351952
vt 0.384650 0.626184
vt 0.443286 0.900283
vt 0.504252 0.282094
vt 0.035884 0.337725
vt 0.004834 0.626648
vt 0.974761 0.952240
vt 0.918276 0.977517
vt 0.820587 0.896731
vt 0.947347 0.896731
vt 0.993527 0.858813
vt 0.933856 0.875208
vt 0.821415 0.816671
vt 0.775809 0.281378
vt 0.659578 0.345521
vt 0.569037 0.348733
vt 0.582476 0.619416
vt 0.498904 0.619418
vt 0.659549 0.893326
vt 0.511454 0.961131
vt 0.047306 0.974108
vt 0.045713 0.906643
vt 0.651339 0.280720
vt 0.501204 0.348484
vt 0.438772 0.619419
vt 0.569012 0.890117
vt 0.775809 0.957295
vt 0.651340 0.957897
vt 0.567421 0.962105
vt 0.501182 0.890364
vt 0.567426 0.276491
vt 0.450107 0.346843
vt 0.392127 0.619418
vt 0.450085 0.892007
vt 0.511461 0.277464
vt 0.045732 0.332196
vt 0.014505 0.619411
vt 0.977569 0.952240
vt 0.921085 0.977517
vt 0.823396 0.896731
vt 0.950156 0.896731
vt 1.000233 0.780182
vt 0.940561 0.796577
vt 0.828121 0.738040
vt 0.777641 0.279158
vt 0.660375 0.343872
vt 0.569027 0.347111
vt 0.582583 0.620208
vt 0.498265 0.620210
vt 0.660342 0.896566
vt 0.510922 0.964974
vt 0.042631 0.978057
vt 0.041025 0.909990
vt 0.652063 0.278493
vt 0.500589 0.346860
vt 0.437596 0.620209
vt 0.568995 0.893326
vt 0.777641 0.961111
vt 0.652058 0.961715
vt 0.567389 0.965958
vt 0.500559 0.893574
vt 0.567402 0.274226
vt 0.449036 0.345202
vt 0.390534 0.620208
vt 0.449007 0.895231
vt 0.510938 0.275206
vt 0.041054 0.330418
vt 0.009543 0.620194
vt 0.977569 0.953214
vt 0.921085 0.978492
vt 0.823396 0.897705
vt 0.950156 0.897705
vt 0.995501 0.779443
vt 0.935830 0.795838
vt 0.823389 0.737301
vt 0.776057 0.281214
vt 0.657839 0.346452
vt 0.565749 0.349717
vt 0.579416 0.625035
vt 0.494413 0.625037
vt 0.657808 0.903634
vt 0.507178 0.972601
vt 0.035080 0.985798
vt 0.033460 0.917178
vt 0.649460 0.280542
vt 0.496755 0.349464
vt 0.433251 0.625036
vt 0.565721 0.900370
vt 0.776057 0.968696
vt 0.649459 0.969310
vt 0.564103 0.973591
vt 0.496730 0.900621
vt 0.564111 0.276239
vt 0.444782 0.347794
vt 0.385808 0.625036
vt 0.444758 0.902292
vt 0.507188 0.277228
vt 0.033482 0.332893
vt 0.001719 0.625026
vt 0.975498 0.954077
vt 0.919013 0.979354
vt 0.821325 0.898568
vt 0.948084 0.898568
vt 0.626309 0.111600
vt 0.640531 0.114006
vt 0.405760 0.114169
vt 0.607219 0.104383
vt 0.626998 0.111950
vt 0.815511 0.132037
vt 0.817172 0.142670
vt 0.981434 0.106772
vt 0.833587 0.089141
vt 0.792682 0.039928
vt 0.786015 0.057794
vt 0.822701 0.085873
vt 0.946180 0.817153
vt 0.037402 0.269639
vt 0.948175 0.816671
vt 0.047324 0.264506
vt 0.954881 0.738040
vt 0.042662 0.262124
vt 0.950149 0.737301
vt 0.035103 0.264044
vt 0.875166 0.094625
vt 0.852643 0.072530
vt 0.837513 0.102261
vt 0.886477 0.100897
vt 0.809297 0.081326
vn -0.712400 0.679700 0.174900
vn 0.512500 -0.317400 -0.797900
vn 0.967300 0.093500 0.235900
vn -0.966800 0.094100 0.237400
vn 0.103900 -0.072000 -0.992000
vn 0.082700 -0.243500 -0.966400
vn 0.969900 0.059400 0.236100
vn -0.969500 0.059800 0.237700
vn 0.446300 -0.600900 -0.663100
vn 0.551300 -0.466200 -0.691900
vn -0.277700 -0.169600 -0.945600
vn 0.970800 0.042300 0.236000
vn -0.970400 0.042600 0.237600
vn 0.240000 -0.148300 -0.959400
vn -0.183600 -0.082900 -0.979500
vn 0.971600 0.020000 0.236000
vn -0.971200 0.020100 0.237500
vn 0.712200 0.680100 0.173700
vn -0.667900 -0.723400 0.174900
vn 0.308900 0.517700 -0.797900
vn -0.109400 0.965600 0.235900
vn -0.078200 -0.968300 0.237400
vn 0.070300 0.105100 -0.992000
vn 0.242100 0.086700 -0.966400
vn -0.075300 0.968800 0.236100
vn -0.043800 -0.970400 0.237700
vn 0.593500 0.456200 -0.663100
vn 0.457000 0.558900 -0.691900
vn 0.174100 -0.274800 -0.945600
vn -0.058300 0.970000 0.236000
vn -0.026700 -0.971000 0.237600
vn 0.144400 0.242400 -0.959400
vn 0.085900 -0.182200 -0.979500
vn -0.035900 0.971100 0.236000
vn -0.004100 -0.971400 0.237500
vn -0.691800 0.700900 0.173700
vn 0.685700 0.706800 0.174100
vn -0.321700 -0.510700 -0.797300
vn 0.085400 -0.967800 0.236900
vn 0.102300 0.966300 0.236400
vn -0.072900 -0.104400 -0.991900
vn -0.244200 -0.081700 -0.966300
vn 0.051200 -0.970100 0.237200
vn 0.067900 0.969200 0.236600
vn -0.604700 -0.442000 -0.662600
vn -0.470800 -0.548100 -0.691300
vn -0.167300 0.278100 -0.945900
vn 0.034200 -0.970900 0.237100
vn 0.050800 0.970300 0.236500
vn -0.150400 -0.239800 -0.959100
vn -0.081400 0.183300 -0.979700
vn 0.011800 -0.971400 0.237000
vn 0.028300 0.971200 0.236500
vn 0.674100 -0.717700 0.174400
vn 0.727500 -0.685600 0.027800
vn -0.587300 0.399100 -0.704100
vn -0.940000 -0.132600 0.314300
vn 0.985300 -0.107600 0.132400
vn -0.198600 0.182800 -0.962900
vn -0.175400 0.350500 -0.920000
vn -0.942700 -0.098800 0.318700
vn 0.987900 -0.073400 0.136300
vn -0.509200 0.666300 -0.544700
vn -0.616200 0.534300 -0.578700
vn 0.185500 0.279600 -0.942000
vn -0.943700 -0.081800 0.320600
vn 0.988800 -0.056400 0.138100
vn -0.331100 0.253100 -0.909000
vn 0.088800 0.196100 -0.976600
vn -0.944500 -0.059600 0.323200
vn 0.989500 -0.034000 0.140500
vn -0.690700 -0.704900 0.161500
vn -0.561600 -0.743400 -0.363300
vn 0.573500 -0.739100 -0.353300
vn -0.639800 0.673800 -0.369800
vn 0.536900 0.794100 -0.284900
vn -0.418100 0.902700 0.101400
vn 0.591800 0.783300 0.190300
vn 0.710600 -0.703300 0.021200
vn -0.038200 -0.994200 -0.100300
vn 0.120500 -0.102500 -0.987400
vn -0.445900 -0.601100 -0.663300
vn 0.967500 0.092000 0.235500
vn -0.967100 0.092600 0.237100
vn 0.182900 -0.082900 -0.979600
vn -0.550700 -0.466400 -0.692200
vn 0.970100 0.057900 0.235800
vn -0.969700 0.058300 0.237400
vn -0.514700 -0.316900 -0.796700
vn -0.084300 -0.243400 -0.966200
vn -0.240500 -0.148300 -0.959300
vn 0.970900 0.040900 0.235800
vn -0.970500 0.041200 0.237400
vn 0.277300 -0.169600 -0.945700
vn -0.105000 -0.072000 -0.991900
vn 0.972000 0.018400 0.234100
vn -0.971700 0.018600 0.235700
vn 0.608300 -0.435900 -0.663300
vn -0.107900 0.965900 0.235500
vn -0.076700 -0.968500 0.237100
vn 0.079900 0.184200 -0.979600
vn 0.475400 -0.542900 -0.692200
vn -0.073900 0.969000 0.235800
vn -0.042400 -0.970500 0.237400
vn 0.325400 -0.509400 -0.796700
vn 0.244800 -0.080300 -0.966200
vn 0.152300 -0.238000 -0.959300
vn -0.056900 0.970100 0.235800
vn -0.025200 -0.971100 0.237400
vn 0.165000 0.280100 -0.945700
vn 0.073700 -0.103800 -0.991900
vn -0.034400 0.971600 0.234100
vn -0.002600 -0.971800 0.235700
vn -0.597300 0.450200 -0.663700
vn 0.083900 -0.968000 0.236600
vn 0.100800 0.966500 0.236000
vn -0.084500 -0.183300 -0.979400
vn -0.461800 0.553900 -0.692800
vn 0.049700 -0.970300 0.236900
vn 0.066500 0.969400 0.236300
vn -0.312600 0.516500 -0.797200
vn -0.242700 0.085300 -0.966300
vn -0.146300 0.240700 -0.959500
vn 0.032700 -0.971000 0.236900
vn 0.049400 0.970400 0.236300
vn -0.172000 -0.276900 -0.945400
vn -0.071100 0.104500 -0.992000
vn 0.010200 -0.971900 0.235200
vn 0.026800 0.971700 0.234600
vn 0.378900 0.678400 -0.629500
vn -0.940300 -0.131100 0.314100
vn 0.985500 -0.106000 0.132200
vn -0.276000 0.191200 -0.941900
vn 0.480800 0.549300 -0.683500
vn -0.942900 -0.097300 0.318600
vn 0.988100 -0.071900 0.136200
vn 0.435300 0.412200 -0.800400
vn -0.009200 0.352700 -0.935700
vn 0.147200 0.259500 -0.954500
vn -0.943800 -0.080400 0.320600
vn 0.988900 -0.054900 0.138000
vn -0.367000 0.272200 -0.889500
vn 0.009400 0.185600 -0.982600
vn -0.945100 -0.057900 0.321600
vn 0.989800 -0.032200 0.138800
vn -0.598100 0.778600 0.189900
vn 0.408500 0.907400 0.098400
vn -0.061900 -0.970100 0.234900
vn -0.552900 -0.810300 0.194300
vn -0.104800 0.093700 -0.990100
vn -0.047200 -0.104800 -0.993400
vn 0.249700 0.098800 -0.963300
vn 0.039000 0.104800 -0.993700
vn 0.265400 0.084400 -0.960400
vn -0.198400 0.054200 -0.978600
vn -0.043700 -0.008100 -0.999000
vn 0.104100 0.051900 -0.993200
vn 0.009700 0.083400 -0.996500
usemtl Material
s off
f 1/1/1 4/2/1 3/3/1
f 1/4/2 2/5/2 10/6/2
f 2/5/3 3/7/3 11/8/3
f 11/8/4 3/7/4 4/9/4
f 17/10/5 5/11/5 8/12/5
f 9/13/6 10/6/6 14/14/6
f 10/6/7 11/8/7 15/15/7
f 15/15/8 11/8/8 12/16/8
f 1/17/9 9/18/9 12/16/9
f 9/18/10 13/19/10 16/20/10
f 13/21/11 14/14/11 18/22/11
f 14/14/12 15/15/12 19/23/12
f 19/23/13 15/15/13 16/20/13
f 13/19/14 17/10/14 20/24/14
f 17/25/15 18/22/15 6/26/15
f 18/22/16 19/23/16 7/27/16
f 7/27/17 19/23/17 20/24/17
f 1/28/1 4/29/1 3/30/1
f 1/28/18 3/30/18 2/31/18
f 21/32/19 24/33/19 23/34/19
f 21/35/20 22/36/20 30/37/20
f 22/36/21 23/38/21 31/39/21
f 31/39/22 23/38/22 24/40/22
f 37/41/23 25/42/23 28/43/23
f 29/44/24 30/37/24 34/45/24
f 30/37/25 31/39/25 35/46/25
f 35/46/26 31/39/26 32/47/26
f 21/48/27 29/49/27 32/47/27
f 29/49/28 33/50/28 36/51/28
f 33/52/29 34/45/29 38/53/29
f 34/45/30 35/46/30 39/54/30
f 39/54/31 35/46/31 36/51/31
f 33/50/32 37/41/32 40/55/32
f 37/56/33 38/53/33 26/57/33
f 38/53/34 39/54/34 27/58/34
f 27/58/35 39/54/35 40/55/35
f 21/59/19 24/60/19 23/61/19
f 21/59/36 23/61/36 22/62/36
f 41/63/37 44/64/37 43/65/37
f 41/66/38 42/67/38 50/68/38
f 42/67/39 43/69/39 51/70/39
f 51/70/40 43/69/40 44/71/40
f 57/72/41 45/73/41 48/74/41
f 49/75/42 50/68/42 54/76/42
f 50/68/43 51/70/43 55/77/43
f 55/77/44 51/70/44 52/78/44
f 41/79/45 49/80/45 52/78/45
f 49/80/46 53/81/46 56/82/46
f 53/83/47 54/76/47 58/84/47
f 54/76/48 55/77/48 59/85/48
f 59/85/49 55/77/49 56/82/49
f 53/81/50 57/72/50 60/86/50
f 57/87/51 58/84/51 46/88/51
f 58/84/52 59/85/52 47/89/52
f 47/89/53 59/85/53 60/86/53
f 41/90/37 44/91/37 43/92/37
f 41/90/54 43/92/54 42/93/54
f 61/94/55 64/95/55 63/96/55
f 61/97/56 62/98/56 70/99/56
f 62/98/57 63/100/57 71/101/57
f 71/101/58 63/100/58 64/102/58
f 77/103/59 65/104/59 68/105/59
f 69/106/60 70/99/60 74/107/60
f 70/99/61 71/101/61 75/108/61
f 75/108/62 71/101/62 72/109/62
f 61/110/63 69/111/63 72/109/63
f 69/111/64 73/112/64 76/113/64
f 73/114/65 74/107/65 78/115/65
f 74/107/66 75/108/66 79/116/66
f 79/116/67 75/108/67 76/113/67
f 73/112/68 77/103/68 80/117/68
f 77/118/69 78/115/69 66/119/69
f 78/115/70 79/116/70 67/120/70
f 67/120/71 79/116/71 80/117/71
f 61/121/55 64/122/55 63/123/55
f 61/121/72 63/123/72 62/124/72
f 7/125/73 47/126/73 81/127/73
f 27/128/74 7/125/74 81/127/74
f 47/126/75 67/129/75 81/127/75
f 27/128/76 81/127/76 67/129/76
f 7/125/77 8/130/77 26/131/77
f 7/125/78 47/126/78 48/132/78
f 47/126/79 67/129/79 68/133/79
f 28/134/80 66/135/80 67/129/80
f 25/136/81 26/131/81 8/130/81
f 2/137/18 1/1/18 3/3/18
f 9/13/82 1/4/82 10/6/82
f 10/6/83 2/5/83 11/8/83
f 12/16/84 11/8/84 4/9/84
f 20/24/85 17/10/85 8/12/85
f 13/21/86 9/13/86 14/14/86
f 14/14/87 10/6/87 15/15/87
f 16/20/88 15/15/88 12/16/88
f 4/9/89 1/17/89 12/16/89
f 12/16/90 9/18/90 16/20/90
f 17/25/91 13/21/91 18/22/91
f 18/22/92 14/14/92 19/23/92
f 20/24/93 19/23/93 16/20/93
f 16/20/94 13/19/94 20/24/94
f 5/138/95 17/25/95 6/26/95
f 6/26/96 18/22/96 7/27/96
f 8/12/97 7/27/97 20/24/97
f 22/139/36 21/32/36 23/34/36
f 29/44/98 21/35/98 30/37/98
f 30/37/99 22/36/99 31/39/99
f 32/47/100 31/39/100 24/40/100
f 40/55/101 37/41/101 28/43/101
f 33/52/102 29/44/102 34/45/102
f 34/45/103 30/37/103 35/46/103
f 36/51/104 35/46/104 32/47/104
f 24/40/105 21/48/105 32/47/105
f 32/47/106 29/49/106 36/51/106
f 37/56/107 33/52/107 38/53/107
f 38/53/108 34/45/108 39/54/108
f 40/55/109 39/54/109 36/51/109
f 36/51/110 33/50/110 40/55/110
f 25/140/111 37/56/111 26/57/111
f 26/57/112 38/53/112 27/58/112
f 28/43/113 27/58/113 40/55/113
f 42/141/54 41/63/54 43/65/54
f 49/75/114 41/66/114 50/68/114
f 50/68/115 42/67/115 51/70/115
f 52/78/116 51/70/116 44/71/116
f 60/86/117 57/72/117 48/74/117
f 53/83/118 49/75/118 54/76/118
f 54/76/119 50/68/119 55/77/119
f 56/82/120 55/77/120 52/78/120
f 44/71/121 41/79/121 52/78/121
f 52/78/122 49/80/122 56/82/122
f 57/87/123 53/83/123 58/84/123
f 58/84/124 54/76/124 59/85/124
f 60/86/125 59/85/125 56/82/125
f 56/82/126 53/81/126 60/86/126
f 45/142/127 57/87/127 46/88/127
f 46/88/128 58/84/128 47/89/128
f 48/74/129 47/89/129 60/86/129
f 62/143/72 61/94/72 63/96/72
f 69/106/130 61/97/130 70/99/130
f 70/99/131 62/98/131 71/101/131
f 72/109/132 71/101/132 64/102/132
f 80/117/133 77/103/133 68/105/133
f 73/114/134 69/106/134 74/107/134
f 74/107/135 70/99/135 75/108/135
f 76/113/136 75/108/136 72/109/136
f 64/102/137 61/110/137 72/109/137
f 72/109/138 69/111/138 76/113/138
f 77/118/139 73/114/139 78/115/139
f 78/115/140 74/107/140 79/116/140
f 80/117/141 79/116/141 76/113/141
f 76/113/142 73/112/142 80/117/142
f 65/144/143 77/118/143 66/119/143
f 66/119/144 78/115/144 67/120/144
f 68/105/145 67/120/145 80/117/145
f 27/128/146 7/125/146 26/131/146
f 6/145/147 7/125/147 48/132/147
f 46/146/148 47/126/148 68/133/148
f 27/128/149 28/134/149 67/129/149
f 6/145/150 68/133/150 5/147/150
f 6/145/151 48/132/151 45/148/151
f 45/148/152 46/146/152 68/133/152
f 66/135/153 28/134/153 25/136/153
f 45/148/154 68/133/154 6/145/154
f 5/147/155 68/133/155 65/149/155
f 8/130/156 65/149/156 25/136/156
f 8/130/157 5/147/157 65/149/157
f 65/149/158 66/135/158 25/136/158
