# Blender v2.71 (sub 0) OBJ File: 'Canon2.blend'
# www.blender.org
mtllib Canon.mtl
v 1.902464 2.700989 4.718353
v 3.640687 5.606247 -11.486220
v -3.651101 5.606247 -11.486220
v -1.902464 2.700989 4.718353
v 1.902464 -2.864483 5.110039
v 3.640687 -5.632792 -11.486220
v -3.651101 -5.632792 -11.486220
v -1.902464 -2.864483 5.110039
v 1.902464 -0.759633 4.796689
v 3.640687 -0.848405 -11.486220
v -3.651101 -0.848405 -11.486220
v -1.902464 -0.759633 4.796689
v 3.640687 0.478454 -11.486220
v -3.651101 0.478454 -11.486220
v -1.902464 0.426088 4.534139
v 1.902464 0.426088 4.534139
v 2.498558 -3.910389 -4.566241
v 2.498558 3.791808 -4.566241
v -2.498558 -3.910389 -4.566241
v -2.498558 3.791808 -4.566241
v 2.498558 -0.631613 -4.566241
v -2.498558 -0.631613 -4.566241
v 2.498558 0.277693 -4.566241
v -2.498558 0.277693 -4.566241
v 3.533528 -5.470942 -5.811527
v -3.545564 5.440263 -5.811527
v -3.545564 -0.826112 -5.811527
v -3.545564 0.462043 -5.811527
v 3.533528 5.440263 -5.811527
v -3.545564 -5.470942 -5.811527
v 3.533528 -0.826112 -5.811527
v 3.533528 0.462043 -5.811527
v 3.640687 -0.420712 -11.486220
v -3.651101 -0.420712 -11.486220
v -1.902464 -0.692938 -4.325553
v 1.902464 -0.692938 -4.325553
v 2.498558 -0.338512 -4.566241
v -2.498558 -0.338512 -4.566241
v 3.533528 -0.410894 -5.811527
v -3.545564 -0.410894 -5.811527
v 2.498558 -0.030410 -4.566241
v -2.498558 -0.030410 -4.566241
v 3.533528 0.025575 -5.811527
v -3.545564 0.025575 -5.811527
v 3.640687 0.028871 -11.486220
v -3.651101 0.028871 -11.486220
v -1.902464 0.348553 -4.325553
v 1.902464 0.348553 -4.325553
v -2.427028 -5.632792 -11.486220
v -2.427028 5.606247 -11.486220
v -1.263730 -2.864483 5.110039
v -1.263730 2.700989 4.718353
v -2.875365 -0.991531 -11.486220
v -1.263730 -0.759633 4.796689
v -2.875365 0.583813 -11.486220
v -1.263730 0.426088 4.534139
v -1.659692 3.791808 -4.566241
v -1.659692 -3.910389 -4.566241
v -2.357197 5.440263 -5.811527
v -2.357197 -5.470942 -5.811527
v -2.875365 -0.483742 -11.486220
v -1.263730 -0.692938 -4.325553
v -2.875365 0.050036 -11.486220
v -1.263730 0.348553 -4.325553
v 2.308749 5.606247 -11.486220
v 1.207445 -2.864483 5.110039
v 2.747300 -0.991531 -11.486220
v 2.747300 0.583813 -11.486220
v 1.585772 -3.910389 -4.566241
v 2.240442 -5.470942 -5.811527
v 2.747300 -0.483742 -11.486220
v 2.747300 0.050036 -11.486220
v 2.308749 -5.632792 -11.486220
v 1.207445 2.700989 4.718353
v 1.207445 -0.759633 4.796689
v 1.207445 0.426088 4.534139
v 1.585772 3.791808 -4.566241
v 2.240442 5.440263 -5.811527
v 1.207445 -0.692938 -4.325553
v 1.207445 0.348553 -4.325553
v -2.177777 5.606247 -11.486220
v -1.133669 -2.864483 5.110039
v -2.579435 -0.991531 -11.486220
v -2.579435 0.583813 -11.486220
v -1.488878 -3.910389 -4.566241
v -2.115216 -5.470942 -5.811527
v -2.579435 -0.483742 -11.486220
v -2.579435 0.050036 -11.486220
v -2.177777 -5.632792 -11.486220
v -1.133669 2.700989 4.718353
v -1.133669 -2.314270 4.796689
v -1.133669 1.995001 4.534139
v -1.488878 3.791808 -4.566241
v -2.115216 5.440263 -5.811527
v -1.133669 -2.071880 -4.325553
v -1.133669 1.713218 -4.325553
v 1.997185 5.606247 -11.486220
v 1.044868 -2.864483 5.110039
v 2.377388 -0.991531 -11.486220
v 2.377388 0.583813 -11.486220
v 1.372254 -3.910389 -4.566241
v 1.937966 -5.470942 -5.811527
v 2.377388 -0.483742 -11.486220
v 2.377388 0.050036 -11.486220
v 1.997185 -5.632792 -11.486220
v 1.044868 2.700989 4.718353
v 1.044868 -2.314270 4.796689
v 1.044868 1.995001 4.534139
v 1.372254 3.791808 -4.566241
v 1.937966 5.440263 -5.811527
v 1.044868 -2.071880 -4.325553
v 1.044868 1.713218 -4.325553
v -0.259100 -10.352696 -11.319345
v -0.275125 -9.411714 -8.670089
v -0.236416 -5.512681 -7.280703
v 0.137390 -5.468215 -11.500629
v -0.670176 -5.489917 -11.547458
v -8.224670 -0.155432 -12.212556
v -7.284129 -0.174694 -9.563301
v -3.453450 -0.167824 -7.159773
v -3.339345 -0.541385 -11.379700
v -3.362788 0.266133 -11.426528
v 8.140550 -0.046951 -12.147552
v 7.201416 -0.037193 -9.498298
v 3.369448 -0.082801 -7.094769
v 3.251572 0.289587 -11.314695
v 3.283179 -0.517652 -11.361525
v 2.904823 8.947701 -12.339849
v 2.460119 8.003130 -11.069415
v 1.421946 5.514134 -8.571534
v 1.044874 5.552068 -11.412642
v 1.852727 5.549253 -11.459470
v -2.927054 8.948910 -12.289097
v -2.560137 8.004339 -11.018662
v -1.613602 5.548560 -8.520782
v -1.990674 5.553278 -11.361889
v -1.182821 5.550463 -11.408717
vt 0.332034 0.299933
vt 0.124596 0.289807
vt 0.227602 0.089665
vt 0.095198 0.754738
vt -0.002665 0.754738
vt -0.002665 0.718731
vt 0.724786 0.889118
vt 0.726851 0.847913
vt 0.984417 0.873256
vt 0.192711 0.835102
vt 0.196431 0.793986
vt 0.215643 0.795724
vt 0.464107 0.238272
vt 0.555310 0.095154
vt 0.599746 0.130258
vt 0.362346 0.384226
vt 0.268794 0.557753
vt 0.210295 0.513326
vt 0.124152 0.324329
vt 0.331567 0.320364
vt 0.211829 0.718731
vt 0.211829 0.754738
vt 0.120521 0.754738
vt 0.706659 0.239714
vt 0.709059 0.200933
vt 0.965401 0.156356
vt 0.053928 0.829226
vt 0.043892 0.791655
vt 0.062529 0.786676
vt 0.331622 0.306871
vt 0.124276 0.301520
vt 0.103778 0.754738
vt 0.093187 0.731919
vt 0.978161 0.938495
vt 0.962889 0.949951
vt 0.973565 0.656683
vt 0.731692 0.700281
vt 0.728272 0.681307
vt 0.983084 0.671816
vt 0.989537 0.734731
vt 0.457712 0.308182
vt 0.458762 0.268694
vt 0.484505 0.248916
vt 0.727456 0.830206
vt 0.985211 0.850001
vt 0.709773 0.327184
vt 0.978976 0.327761
vt 0.979908 0.353057
vt 0.710483 0.346445
vt 0.974348 0.411786
vt 0.477691 0.376451
vt 0.454277 0.355195
vt 0.457300 0.319532
vt 0.987977 0.669206
vt 0.457611 0.312033
vt 0.491576 0.305652
vt 0.366128 0.305577
vt 0.344838 0.242932
vt 0.443835 0.266766
vt 0.379129 0.353650
vt 0.339814 0.372932
vt 0.365701 0.317056
vt 0.365937 0.309463
vt 0.582637 0.503646
vt 0.490354 0.325406
vt 0.491390 0.312379
vt 0.681189 0.313427
vt 0.124152 0.313235
vt 0.331470 0.313788
vt 0.123252 0.731919
vt 0.112358 0.754738
vt 0.955034 0.141810
vt 0.969876 0.153566
vt 0.715547 0.384969
vt 0.965008 0.427011
vt 0.961805 0.446017
vt 0.979004 0.414261
vt 0.457481 0.315882
vt 0.365780 0.313358
vt 0.678869 0.344842
vt 0.490970 0.319068
vt 0.113561 0.731919
vt 0.685217 0.874041
vt 0.667374 0.880423
vt 0.667374 0.861668
vt 0.561766 0.880423
vt 0.561766 0.861668
vt 0.581057 0.861668
vt 0.543923 0.874041
vt 0.543923 0.868492
vt 0.679733 0.334756
vt -0.002665 0.711399
vt 0.288505 0.836882
vt 0.284232 0.795821
vt 0.301865 0.793986
vt 0.459109 0.236386
vt 0.548442 0.090948
vt 0.535574 0.534824
vt 0.456696 0.385013
vt 0.211829 0.711399
vt 0.141154 0.823985
vt 0.152125 0.786676
vt 0.169133 0.791678
vt 0.103374 0.731919
vt 0.093187 0.723214
vt 0.958504 0.967117
vt 0.720400 0.906283
vt 0.727626 0.825696
vt 0.985373 0.845266
vt 0.974993 0.214563
vt 0.975739 0.237815
vt 0.707227 0.257419
vt 0.440551 0.266357
vt 0.439662 0.355509
vt 0.113561 0.723214
vt 0.704919 0.183710
vt 0.950895 0.124587
vt 0.103374 0.723214
vt 0.649645 0.880423
vt 0.649645 0.861668
vt 0.211923 0.836840
vt 0.220156 0.795731
vt 0.368921 0.386238
vt 0.279419 0.563288
vt 0.077078 0.824230
vt 0.072565 0.824247
vt 0.970145 0.637709
vt 0.723041 0.653196
vt 0.709603 0.322489
vt 0.978758 0.321843
vt 0.384760 0.353825
vt 0.707504 0.431891
vt 0.712344 0.403975
vt 0.585569 0.905254
vt 0.581057 0.880423
vt 0.095198 0.540244
vt 0.093187 0.566523
vt -0.002665 0.579424
vt 0.290435 0.050378
vt 0.369053 0.234146
vt 0.211829 0.579424
vt 0.123252 0.566524
vt 0.120520 0.540244
vt 0.103778 0.540244
vt 0.103374 0.566524
vt 0.988584 0.760034
vt 0.730070 0.760798
vt 0.385217 0.265285
vt 0.113561 0.566524
vt 0.112358 0.540244
vt -0.002665 0.588589
vt 0.375843 0.232676
vt 0.301641 0.045767
vt 0.211829 0.588589
vt 0.123252 0.723214
vt 0.093187 0.577405
vt 0.729901 0.765307
vt 0.988360 0.765954
vt 0.389352 0.265226
vt 0.113561 0.577405
vt 0.280603 0.809519
vt 0.280622 0.795816
vt 0.528397 0.538440
vt 0.451593 0.386414
vt 0.137544 0.823999
vt 0.137493 0.810815
vt 0.952224 0.991132
vt 0.713198 0.933821
vt 0.975891 0.242550
vt 0.707420 0.262113
vt 0.436428 0.355495
vt 0.698198 0.156319
vt 0.944921 0.100238
vt 0.646035 0.905254
vt 0.646035 0.837094
vt 0.220136 0.809434
vt 0.077027 0.811046
vt 0.965578 0.613159
vt 0.713198 0.593570
vt 0.957498 0.470863
vt 0.948192 0.530556
vt 0.585569 0.837094
vt 0.123252 0.577405
vt 0.103374 0.577405
vt 0.181028 0.977262
vt 0.228687 0.902351
vt 0.125150 0.846608
vt 0.068959 0.977262
vt 0.124994 0.926721
vt 0.003198 0.917608
vt 0.020432 0.903212
vt 0.475874 0.991302
vt 0.522512 0.895046
vt 0.446788 0.844319
vt 0.400931 0.986958
vt 0.441156 0.941636
vt 0.354318 0.890689
vt 0.365011 0.886886
vt 0.262274 0.871555
vt 0.227050 0.956475
vt 0.294551 0.996174
vt 0.326812 0.871555
vt 0.294543 0.912401
vt 0.218542 0.951702
vt 0.426869 0.744956
vt 0.343648 0.756813
vt 0.336492 0.836042
vt 0.433396 0.751982
vt 0.400265 0.776217
vt 0.433846 0.836042
vt 0.416313 0.822004
vt 0.542125 0.741921
vt 0.473214 0.760031
vt 0.460358 0.838533
vt 0.549488 0.748668
vt 0.518687 0.774892
vt 0.460358 0.741614
vt 0.973469 0.935541
vt 0.730796 0.741532
vt 0.368764 0.265697
vt 0.366611 0.352871
vt 0.680542 0.324098
vt 0.685217 0.868492
vt 0.306138 0.835047
vt 0.158162 0.828986
vt -0.002664 0.540244
vt 0.211829 0.540244
vt 0.955735 0.553533
vt 0.698198 0.491584
vt 0.362558 0.955569
vt 0.540949 0.829989
vn 0.999800 0.000000 0.018900
vn 0.000000 0.000000 -1.000000
vn -0.998000 -0.005100 0.063500
vn 0.000000 -0.080700 0.996700
vn 0.000000 0.999600 0.029200
vn 0.000000 -0.999600 0.028500
vn -0.997900 0.009500 0.063700
vn 0.000000 0.147200 0.989100
vn 0.534400 -0.845200 0.007400
vn 0.000000 -1.000000 0.008800
vn 0.997900 0.000000 0.065400
vn -0.765400 0.000000 0.643500
vn 0.000000 0.993200 0.116700
vn 0.000000 -0.994200 0.107500
vn 0.998100 0.000000 0.061500
vn 0.769100 0.000000 0.639200
vn 0.000000 0.602800 0.797900
vn 0.000000 -0.623700 0.781600
vn -0.999800 0.000000 0.018600
vn 0.509200 0.860600 0.006300
vn 0.000000 1.000000 0.007300
vn 0.998000 0.000000 0.063500
vn -0.374400 0.000000 0.927300
vn 0.000000 0.000000 1.000000
vn 0.374400 0.000000 0.927300
vn -0.994700 -0.103100 0.000900
vn -0.994600 0.104000 0.000800
vn 0.950100 -0.078800 0.301900
vn 0.986000 0.082500 0.144800
vn 0.995500 -0.094900 0.003000
vn 0.995600 0.093900 0.002500
vn 0.000000 -0.252500 0.967600
vn 0.000000 0.494900 0.869000
vn 0.000000 -0.999500 0.031800
vn 0.000000 0.999600 0.026600
vn 0.993200 -0.077400 0.087200
vn -0.999800 0.013800 -0.011000
vn -0.059000 0.041800 0.997400
vn -0.092900 -0.992000 0.085300
vn -0.008200 0.999900 0.010200
vn -0.163800 0.052400 0.985100
vn 0.082900 0.992900 0.085300
vn 0.018300 -0.999800 0.010200
vn 0.164300 -0.050700 0.985100
vn -0.856500 0.502000 0.120400
vn 0.957000 -0.248100 0.150500
vn 0.057100 0.233800 0.970600
vn -0.964500 -0.231100 0.127600
vn 0.936000 0.352000 -0.008600
vn 0.056600 0.277500 0.959100
vn -0.997900 0.000000 0.065400
vn -0.998100 0.000000 0.061500
vn 0.998000 -0.005100 0.063500
vn 0.997900 0.009500 0.063700
vn -0.534400 -0.845200 0.007400
vn -0.998000 0.000000 0.063500
vn -0.509200 0.860600 0.006300
vn -0.925100 -0.095900 0.367400
vn -0.978400 0.102300 0.179700
vn -0.993000 -0.118300 0.003800
vn -0.993100 0.117100 0.003100
vn 0.996600 -0.082600 0.000700
vn 0.996500 0.083400 0.000600
vn 0.999800 -0.013800 0.011000
vn -0.991800 -0.079100 0.100400
vn 0.008200 -0.999900 -0.010200
vn -0.101800 0.989900 0.098500
vn -0.018300 0.999800 -0.010200
vn 0.111800 -0.988800 0.098500
vn -0.957000 0.248100 -0.150500
vn 0.955600 -0.259700 0.139400
vn -0.936000 -0.352000 0.008600
vn 0.868100 0.479200 0.129800
usemtl Mat
s off
f 32/1/1 13/2/1 2/3/1
f 14/4/2 3/5/2 50/6/2
f 15/7/3 4/8/3 20/9/3
f 16/10/4 1/11/4 74/12/4
f 59/13/5 50/14/5 3/15/5
f 70/16/6 73/17/6 6/18/6
f 6/18/1 10/19/1 31/20/1
f 49/21/2 7/22/2 11/23/2
f 8/24/7 12/25/7 22/26/7
f 5/27/8 9/28/8 75/29/8
f 43/30/1 45/31/1 13/2/1
f 46/32/2 14/4/2 55/33/2
f 42/34/9 47/35/9 15/7/9
f 48/36/10 16/37/10 76/38/10
f 16/37/11 23/39/11 18/40/11
f 24/41/12 20/42/12 26/43/12
f 52/44/13 57/45/13 20/9/13
f 66/46/14 69/47/14 17/48/14
f 5/49/15 17/48/15 21/50/15
f 30/51/12 19/52/12 22/53/12
f 41/54/11 23/39/11 16/37/11
f 42/55/12 24/41/12 28/56/12
f 23/57/16 32/1/16 29/58/16
f 57/59/17 59/13/17 26/43/17
f 69/60/18 70/16/18 25/61/18
f 25/61/16 31/20/16 21/62/16
f 41/63/16 43/30/16 32/1/16
f 28/56/19 26/43/19 3/15/19
f 7/64/19 30/51/19 27/65/19
f 44/66/19 28/56/19 14/67/19
f 10/19/1 33/68/1 39/69/1
f 53/70/2 11/23/2 34/71/2
f 12/25/20 35/72/20 38/73/20
f 9/74/21 36/75/21 79/76/21
f 9/74/22 21/50/22 37/77/22
f 27/65/12 22/53/12 38/78/12
f 31/20/16 39/69/16 37/79/16
f 11/80/19 27/65/19 40/81/19
f 33/68/1 45/31/1 43/30/1
f 61/82/2 34/71/2 46/32/2
f 38/83/23 35/84/23 47/85/23
f 36/86/24 48/87/24 80/88/24
f 37/89/25 41/90/25 48/87/25
f 40/81/12 38/78/12 42/55/12
f 39/69/16 43/30/16 41/63/16
f 34/91/19 40/81/19 44/66/19
f 55/33/2 50/6/2 81/92/2
f 56/93/4 52/94/4 4/95/4
f 94/96/5 81/97/5 50/14/5
f 7/64/6 49/98/6 60/99/6
f 89/100/2 49/21/2 53/70/2
f 51/101/8 54/102/8 12/103/8
f 63/104/2 55/33/2 84/105/2
f 64/106/10 56/107/10 15/7/10
f 90/108/13 93/109/13 57/45/13
f 19/110/14 58/111/14 51/112/14
f 93/113/17 94/96/17 59/13/17
f 30/51/18 60/99/18 58/114/18
f 53/70/2 61/82/2 87/115/2
f 54/116/21 62/117/21 35/72/21
f 61/82/2 63/104/2 88/118/2
f 62/119/24 64/120/24 47/85/24
f 76/121/4 74/12/4 106/122/4
f 102/123/6 105/124/6 73/17/6
f 98/125/8 66/126/8 75/29/8
f 80/127/26 76/38/26 108/128/26
f 98/129/14 101/130/14 69/47/14
f 101/131/18 102/123/18 70/16/18
f 107/132/27 75/133/27 79/76/27
f 111/134/24 79/135/24 80/88/24
f 13/136/2 68/137/2 65/138/2
f 2/3/5 65/139/5 78/140/5
f 73/141/2 67/142/2 10/143/2
f 45/144/2 72/145/2 68/137/2
f 18/40/13 77/146/13 74/147/13
f 29/58/17 78/140/17 77/148/17
f 67/142/2 71/149/2 33/150/2
f 71/149/2 72/145/2 45/144/2
f 84/105/2 81/92/2 97/151/2
f 110/152/5 97/153/5 81/97/5
f 105/154/2 89/100/2 83/155/2
f 88/118/2 84/105/2 100/156/2
f 106/157/13 109/158/13 93/109/13
f 109/159/17 110/152/17 94/96/17
f 83/155/2 87/115/2 103/160/2
f 103/160/2 87/115/2 88/118/2
f 56/93/28 92/161/28 90/162/28
f 49/98/6 89/163/6 86/164/6
f 82/165/29 91/166/29 54/102/29
f 64/106/30 96/167/30 92/168/30
f 58/111/14 85/169/14 82/170/14
f 60/99/18 86/164/18 85/171/18
f 91/172/31 95/173/31 62/117/31
f 95/174/24 96/175/24 64/120/24
f 108/176/32 106/122/32 90/162/32
f 89/163/6 105/124/6 102/123/6
f 98/125/33 107/177/33 91/166/33
f 112/178/34 108/128/34 92/179/34
f 85/169/14 101/130/14 98/129/14
f 86/164/18 102/123/18 101/131/18
f 107/132/35 111/180/35 95/181/35
f 111/134/24 112/182/24 96/175/24
f 68/137/2 100/156/2 97/151/2
f 65/139/5 97/153/5 110/152/5
f 105/154/2 99/183/2 67/142/2
f 104/184/2 100/156/2 68/137/2
f 77/146/13 109/158/13 106/157/13
f 78/140/17 110/152/17 109/159/17
f 99/183/2 103/160/2 71/149/2
f 103/160/2 104/184/2 72/145/2
f 113/185/36 116/186/36 115/187/36
f 113/188/37 114/189/37 115/187/37
f 116/190/38 117/191/38 113/188/38
f 118/192/39 121/193/39 120/194/39
f 118/195/40 119/196/40 120/194/40
f 121/197/41 122/198/41 118/195/41
f 123/199/42 126/200/42 125/201/42
f 123/202/43 124/203/43 125/201/43
f 126/200/44 127/204/44 123/199/44
f 128/205/45 131/206/45 130/207/45
f 128/208/46 129/209/46 130/207/46
f 131/210/47 132/211/47 128/208/47
f 133/212/48 136/213/48 135/214/48
f 133/215/49 134/216/49 135/214/49
f 136/213/50 137/217/50 133/212/50
f 29/58/1 32/1/1 2/3/1
f 55/33/2 14/4/2 50/6/2
f 24/218/51 15/7/51 20/9/51
f 76/121/4 16/10/4 74/12/4
f 26/43/5 59/13/5 3/15/5
f 25/61/6 70/16/6 6/18/6
f 25/61/1 6/18/1 31/20/1
f 53/70/2 49/21/2 11/23/2
f 19/110/52 8/24/52 22/26/52
f 66/126/8 5/27/8 75/29/8
f 32/1/1 43/30/1 13/2/1
f 63/104/2 46/32/2 55/33/2
f 24/218/51 42/34/51 15/7/51
f 80/127/10 48/36/10 76/38/10
f 1/219/53 16/37/53 18/40/53
f 28/56/12 24/41/12 26/43/12
f 4/8/13 52/44/13 20/9/13
f 5/49/14 66/46/14 17/48/14
f 9/74/54 5/49/54 21/50/54
f 27/65/12 30/51/12 22/53/12
f 48/36/55 41/54/55 16/37/55
f 44/66/12 42/55/12 28/56/12
f 18/220/16 23/57/16 29/58/16
f 20/42/17 57/59/17 26/43/17
f 17/221/18 69/60/18 25/61/18
f 17/221/16 25/61/16 21/62/16
f 23/57/16 41/63/16 32/1/16
f 14/67/19 28/56/19 3/15/19
f 11/80/19 7/64/19 27/65/19
f 46/222/19 44/66/19 14/67/19
f 31/20/1 10/19/1 39/69/1
f 61/82/2 53/70/2 34/71/2
f 22/26/56 12/25/56 38/73/56
f 75/133/21 9/74/21 79/76/21
f 36/75/57 9/74/57 37/77/57
f 40/81/12 27/65/12 38/78/12
f 21/62/16 31/20/16 37/79/16
f 34/91/19 11/80/19 40/81/19
f 39/69/1 33/68/1 43/30/1
f 63/104/2 61/82/2 46/32/2
f 42/223/23 38/83/23 47/85/23
f 79/135/24 36/86/24 80/88/24
f 36/86/25 37/89/25 48/87/25
f 44/66/12 40/81/12 42/55/12
f 37/79/16 39/69/16 41/63/16
f 46/222/19 34/91/19 44/66/19
f 84/105/2 55/33/2 81/92/2
f 15/224/4 56/93/4 4/95/4
f 59/13/5 94/96/5 50/14/5
f 30/51/6 7/64/6 60/99/6
f 83/155/2 89/100/2 53/70/2
f 8/225/8 51/101/8 12/103/8
f 88/118/2 63/104/2 84/105/2
f 47/35/10 64/106/10 15/7/10
f 52/44/13 90/108/13 57/45/13
f 8/24/14 19/110/14 51/112/14
f 57/59/17 93/113/17 59/13/17
f 19/52/18 30/51/18 58/114/18
f 83/155/2 53/70/2 87/115/2
f 12/25/21 54/116/21 35/72/21
f 87/115/2 61/82/2 88/118/2
f 35/84/24 62/119/24 47/85/24
f 108/176/58 76/121/58 106/122/58
f 70/16/6 102/123/6 73/17/6
f 107/177/59 98/125/59 75/29/59
f 112/178/60 80/127/60 108/128/60
f 66/46/14 98/129/14 69/47/14
f 69/60/18 101/131/18 70/16/18
f 111/180/61 107/132/61 79/76/61
f 112/182/24 111/134/24 80/88/24
f 2/226/2 13/136/2 65/138/2
f 29/58/5 2/3/5 78/140/5
f 6/227/2 73/141/2 10/143/2
f 13/136/2 45/144/2 68/137/2
f 1/219/13 18/40/13 74/147/13
f 18/220/17 29/58/17 77/148/17
f 10/143/2 67/142/2 33/150/2
f 33/150/2 71/149/2 45/144/2
f 100/156/2 84/105/2 97/151/2
f 94/96/5 110/152/5 81/97/5
f 99/183/2 105/154/2 83/155/2
f 104/184/2 88/118/2 100/156/2
f 90/108/13 106/157/13 93/109/13
f 93/113/17 109/159/17 94/96/17
f 99/183/2 83/155/2 103/160/2
f 104/184/2 103/160/2 88/118/2
f 52/94/4 56/93/4 90/162/4
f 60/99/6 49/98/6 86/164/6
f 51/101/8 82/165/8 54/102/8
f 56/107/62 64/106/62 92/168/62
f 51/112/14 58/111/14 82/170/14
f 58/114/18 60/99/18 85/171/18
f 54/116/63 91/172/63 62/117/63
f 62/119/24 95/174/24 64/120/24
f 92/161/32 108/176/32 90/162/32
f 86/164/6 89/163/6 102/123/6
f 82/165/33 98/125/33 91/166/33
f 96/228/34 112/178/34 92/179/34
f 82/170/14 85/169/14 98/129/14
f 85/171/18 86/164/18 101/131/18
f 91/229/35 107/132/35 95/181/35
f 95/174/24 111/134/24 96/175/24
f 65/138/2 68/137/2 97/151/2
f 78/140/5 65/139/5 110/152/5
f 73/141/2 105/154/2 67/142/2
f 72/145/2 104/184/2 68/137/2
f 74/147/13 77/146/13 106/157/13
f 77/148/17 78/140/17 109/159/17
f 67/142/2 99/183/2 71/149/2
f 71/149/2 103/160/2 72/145/2
f 114/189/64 113/185/64 115/187/64
f 117/191/65 113/188/65 115/187/65
f 119/196/66 118/192/66 120/194/66
f 122/198/67 118/195/67 120/194/67
f 124/203/68 123/199/68 125/201/68
f 127/230/69 123/202/69 125/201/69
f 129/209/70 128/205/70 130/207/70
f 132/211/71 128/208/71 130/207/71
f 134/216/72 133/212/72 135/214/72
f 137/231/73 133/215/73 135/214/73
