# Blender v2.71 (sub 0) OBJ File: 'RampageShot.blend'
# www.blender.org
mtllib RampageShot.mtl
v 0.261121 -0.251894 -4.506989
v 0.284579 -0.274523 4.973452
v -0.284579 -0.274523 4.973452
v -0.261120 -0.251894 -4.506989
v 0.261121 0.251894 -4.506989
v 0.284578 0.274523 4.973453
v -0.284579 0.274523 4.973452
v -0.261120 0.251894 -4.506989
v 1.008657 -0.973016 3.967068
v -1.008657 -0.973016 3.967067
v 1.008657 0.973016 3.967070
v -1.008657 0.973016 3.967067
v 0.261121 0.000000 -4.506989
v 0.284578 0.000000 4.973452
v -0.284579 0.000000 4.973452
v -0.261120 0.000000 -4.506989
v 1.008657 0.000000 3.967069
v -1.008657 0.000000 3.967067
v 0.000000 -0.251894 -4.506989
v -0.000000 -0.274523 4.973452
v 0.000000 0.251894 -4.506989
v -0.000000 0.274523 4.973452
v -0.000000 -0.973016 3.967068
v -0.000000 0.973016 3.967068
v -0.000000 0.000000 4.973452
v 0.000000 0.000000 -4.506989
v -0.881013 -0.849882 1.304623
v -0.881013 0.849882 1.304623
v 0.881013 -0.849882 1.304624
v 0.881013 0.849882 1.304625
v -0.881013 0.000000 1.304623
v 0.881013 0.000000 1.304624
v -0.000000 -0.849882 1.304623
v -0.000000 0.849882 1.304624
v -0.761683 -0.734768 -2.199344
v -0.761683 0.734768 -2.199344
v 0.761683 -0.734768 -2.199343
v 0.761683 0.734768 -2.199342
v -0.761683 0.000000 -2.199344
v 0.000000 -0.734768 -2.199344
v 0.761683 0.000000 -2.199343
v -0.000000 0.734768 -2.199343
vn 0.000000 -0.821500 0.570200
vn 0.000000 0.821500 0.570200
vn 0.811700 -0.000000 0.584000
vn 0.000000 -0.000000 1.000000
vn -0.977300 -0.000000 -0.212000
vn 0.000000 0.000000 -1.000000
vn 0.000000 -0.998900 -0.046200
vn 0.000000 0.998900 -0.046200
vn 0.998900 0.000000 -0.047900
vn -0.811700 0.000000 0.584000
vn -0.998900 -0.000000 -0.047900
vn 0.000000 -0.999500 -0.032800
vn 0.000000 0.999500 -0.032800
vn 0.999400 0.000000 -0.034000
vn -0.999400 -0.000000 -0.034000
vn 0.000000 -0.978800 -0.204800
vn 0.000000 0.978800 -0.204800
vn 0.977300 0.000000 -0.212000
usemtl Material
s off
f 20//1 3//1 10//1
f 12//2 7//2 22//2
f 11//3 6//3 14//3
f 25//4 22//4 7//4
f 36//5 8//5 16//5
f 19//6 4//6 16//6
f 33//7 23//7 10//7
f 34//8 28//8 12//8
f 32//9 30//9 11//9
f 15//10 7//10 12//10
f 9//3 17//3 14//3
f 20//4 25//4 15//4
f 35//5 39//5 16//5
f 26//6 16//6 8//6
f 32//9 17//9 9//9
f 15//10 18//10 10//10
f 9//1 2//1 20//1
f 11//2 24//2 22//2
f 14//4 6//4 22//4
f 13//6 1//6 19//6
f 9//7 23//7 33//7
f 34//8 24//8 11//8
f 2//4 14//4 25//4
f 13//6 26//6 21//6
f 12//11 28//11 31//11
f 40//12 33//12 27//12
f 42//13 36//13 28//13
f 41//14 38//14 30//14
f 10//11 18//11 31//11
f 41//14 32//14 29//14
f 29//12 33//12 40//12
f 42//13 34//13 30//13
f 28//15 36//15 39//15
f 27//15 31//15 39//15
f 19//16 40//16 35//16
f 21//17 8//17 36//17
f 13//18 5//18 38//18
f 13//18 41//18 37//18
f 37//16 40//16 19//16
f 21//17 42//17 38//17
f 23//1 20//1 10//1
f 24//2 12//2 22//2
f 17//3 11//3 14//3
f 15//4 25//4 7//4
f 39//5 36//5 16//5
f 26//6 19//6 16//6
f 27//7 33//7 10//7
f 24//8 34//8 12//8
f 17//9 32//9 11//9
f 18//10 15//10 12//10
f 2//3 9//3 14//3
f 3//4 20//4 15//4
f 4//5 35//5 16//5
f 21//6 26//6 8//6
f 29//9 32//9 9//9
f 3//10 15//10 10//10
f 23//1 9//1 20//1
f 6//2 11//2 22//2
f 25//4 14//4 22//4
f 26//6 13//6 19//6
f 29//7 9//7 33//7
f 30//8 34//8 11//8
f 20//4 2//4 25//4
f 5//6 13//6 21//6
f 18//11 12//11 31//11
f 35//12 40//12 27//12
f 34//13 42//13 28//13
f 32//14 41//14 30//14
f 27//11 10//11 31//11
f 37//14 41//14 29//14
f 37//12 29//12 40//12
f 38//13 42//13 30//13
f 31//15 28//15 39//15
f 35//15 27//15 39//15
f 4//16 19//16 35//16
f 42//17 21//17 36//17
f 41//18 13//18 38//18
f 1//18 13//18 37//18
f 1//16 37//16 19//16
f 5//17 21//17 38//17
