# Blender v2.76 (sub 0) OBJ File: 'model.blend'
# www.blender.org
mtllib ship2.mtl
o Attach_attach
v 2.585648 2.206567 0.205178
v 2.585648 2.239062 -0.420079
v 2.585648 -0.025548 0.089173
v 2.585648 0.006947 -0.536084
v 5.359139 2.808159 0.407911
v 5.359139 2.858429 -0.559359
v 5.359139 -0.644914 0.228453
v 5.359139 -0.594644 -0.738817
v 3.510309 0.006947 -0.536084
v 3.510309 -0.025548 0.089173
v 3.510309 2.239062 -0.420079
v 3.510309 2.206567 0.205178
v 2.585648 2.219861 -0.050609
v 2.585648 -1.127038 -0.224550
v 5.359139 -1.739133 -0.225184
v 5.359139 2.828724 0.012210
v 3.510309 2.219861 -0.050609
v 3.510309 -1.127038 -0.224550
v -2.585648 2.206567 0.205178
v -2.585648 2.239062 -0.420079
v -2.585648 -0.025548 0.089173
v -2.585648 0.006947 -0.536084
v -5.359139 2.808159 0.407911
v -5.359139 2.858429 -0.559359
v -5.359139 -0.644914 0.228453
v -5.359139 -0.594644 -0.738817
v -3.510309 0.006947 -0.536084
v -3.510309 -0.025548 0.089173
v -3.510309 2.239062 -0.420079
v -3.510309 2.206567 0.205178
v -2.585648 2.219861 -0.050609
v -2.585648 -1.127038 -0.224550
v -5.359139 -1.739133 -0.225184
v -5.359139 2.828724 0.012210
v -3.510309 2.219861 -0.050609
v -3.510309 -1.127038 -0.224550
vn -1.000000 0.000000 0.000000
vn -0.125500 -0.379900 0.916500
vn 1.000000 0.000000 0.000000
vn 0.000000 0.998700 0.051900
vn -0.092200 -0.051700 0.994400
vn 0.000000 0.051900 -0.998700
vn -0.092200 0.051700 -0.994400
vn 0.000000 -0.051900 0.998700
vn -0.313900 0.948200 0.049300
vn 0.000000 -0.273900 0.961800
vn 0.000000 -0.264900 -0.964300
vn -0.134600 -0.405700 -0.904000
vn 0.162000 -0.270300 0.949000
vn 0.092200 -0.051700 0.994400
vn 0.092200 0.051700 -0.994400
vn 0.313900 0.948200 0.049300
vn 0.134600 -0.405700 -0.904000
vn -0.162000 -0.270300 0.949000
vn -0.188500 -0.260200 -0.947000
vn 0.125500 -0.379900 0.916500
vn 0.188500 -0.260200 -0.947000
usemtl None
s off
f 13//1 14//1 3//1
f 18//2 15//2 7//2
f 16//3 5//3 7//3
f 13//4 1//4 12//4
f 10//5 7//5 5//5
f 9//6 4//6 2//6
f 8//7 9//7 11//7
f 3//8 10//8 12//8
f 16//9 17//9 12//9
f 18//10 10//10 3//10
f 9//11 18//11 14//11
f 11//9 17//9 16//9
f 2//4 13//4 17//4
f 8//3 6//3 16//3
f 8//12 15//12 18//12
f 4//1 14//1 13//1
f 31//3 19//3 21//3
f 36//13 28//13 25//13
f 25//1 23//1 34//1
f 30//4 19//4 31//4
f 23//14 25//14 28//14
f 20//6 22//6 27//6
f 29//15 27//15 26//15
f 30//8 28//8 21//8
f 34//16 23//16 30//16
f 21//10 28//10 36//10
f 32//11 36//11 27//11
f 34//16 35//16 29//16
f 35//4 31//4 20//4
f 26//1 33//1 34//1
f 36//17 33//17 26//17
f 31//3 32//3 22//3
f 1//1 13//1 3//1
f 10//18 18//18 7//18
f 15//3 16//3 7//3
f 17//4 13//4 12//4
f 12//5 10//5 5//5
f 11//6 9//6 2//6
f 6//7 8//7 11//7
f 1//8 3//8 12//8
f 5//9 16//9 12//9
f 14//10 18//10 3//10
f 4//11 9//11 14//11
f 6//9 11//9 16//9
f 11//4 2//4 17//4
f 15//3 8//3 16//3
f 9//19 8//19 18//19
f 2//1 4//1 13//1
f 32//3 31//3 21//3
f 33//20 36//20 25//20
f 33//1 25//1 34//1
f 35//4 30//4 31//4
f 30//14 23//14 28//14
f 29//6 20//6 27//6
f 24//15 29//15 26//15
f 19//8 30//8 21//8
f 35//16 34//16 30//16
f 32//10 21//10 36//10
f 22//11 32//11 27//11
f 24//16 34//16 29//16
f 29//4 35//4 20//4
f 24//1 26//1 34//1
f 27//21 36//21 26//21
f 20//3 31//3 22//3
o Core
v -3.509517 1.904991 1.731411
v -3.509517 5.131951 -2.161936
v -1.795021 -8.045226 1.156357
v -1.795021 -5.933935 -1.020226
v 3.509517 1.904991 1.731411
v 3.509517 5.131951 -2.161936
v 1.795021 -8.045226 1.156357
v 1.795021 -5.933935 -1.020226
v -2.267872 -3.293659 -1.356499
v -2.267872 -4.880715 1.336797
v 2.267872 -3.293659 -1.356499
v 2.267872 -4.880715 1.336797
v -2.842625 -1.034243 1.556122
v 2.842625 -0.084395 -1.765240
v -2.842625 -0.084395 -1.765240
v 2.842625 -1.034243 1.556122
v -3.509517 2.652702 0.230626
v -1.795021 -7.090761 0.482975
v 1.795021 -7.090761 0.482975
v 3.509517 2.652702 0.230626
v 2.267872 -4.167479 0.425647
v -2.267872 -4.167479 0.425647
v -2.842625 -0.614221 0.355964
v 2.842625 -0.614221 0.355964
vn -0.972400 -0.134400 -0.190600
vn 0.000000 -0.576500 -0.817100
vn 0.974000 -0.202700 -0.101000
vn 0.000000 0.895100 0.445900
vn 0.000000 -0.056900 0.998400
vn 0.000000 -0.126300 -0.992000
vn 0.978900 -0.160800 -0.125900
vn -0.983900 -0.140700 -0.110200
vn -0.973400 -0.216300 -0.075700
vn 0.000000 -0.059500 0.998200
vn -0.000000 -0.075800 -0.997100
vn 0.985400 -0.160500 -0.056200
vn 0.982300 -0.181700 -0.045400
vn -0.978200 -0.201600 -0.050400
vn -0.983900 -0.160700 -0.078800
vn 0.978100 -0.186800 -0.091600
vn 0.000000 0.694400 0.719600
vn 0.980600 -0.136100 -0.141000
vn 0.000000 -0.792500 -0.609900
vn -0.979200 -0.160800 -0.123800
vn -0.978900 -0.160800 -0.125900
vn 0.973400 -0.216300 -0.075700
vn 0.972400 -0.134400 -0.190600
vn -0.985400 -0.160500 -0.056200
vn -0.974000 -0.202700 -0.101000
vn 0.983900 -0.140700 -0.110200
vn 0.983900 -0.160700 -0.078800
vn -0.980600 -0.136100 -0.141000
vn -0.982300 -0.181700 -0.045400
vn 0.979200 -0.160800 -0.123800
vn 0.978200 -0.201600 -0.050400
vn -0.978100 -0.186800 -0.091600
usemtl None
s off
f 54//22 39//22 46//22
f 55//23 43//23 39//23
f 60//24 56//24 41//24
f 53//25 37//25 41//25
f 39//26 43//26 48//26
f 44//27 40//27 45//27
f 47//27 45//27 51//27
f 46//26 48//26 52//26
f 55//28 57//28 48//28
f 58//29 46//29 49//29
f 59//30 49//30 37//30
f 49//31 52//31 41//31
f 42//32 50//32 51//32
f 57//33 60//33 52//33
f 47//34 50//34 60//34
f 51//35 59//35 53//35
f 45//36 58//36 59//36
f 44//37 47//37 57//37
f 38//38 53//38 56//38
f 50//39 42//39 56//39
f 44//40 55//40 54//40
f 40//41 54//41 58//41
f 58//42 54//42 46//42
f 54//23 55//23 39//23
f 52//43 60//43 41//43
f 56//25 53//25 41//25
f 46//26 39//26 48//26
f 47//27 44//27 45//27
f 50//27 47//27 51//27
f 49//26 46//26 52//26
f 43//44 55//44 48//44
f 59//45 58//45 49//45
f 53//46 59//46 37//46
f 37//31 49//31 41//31
f 38//32 42//32 51//32
f 48//47 57//47 52//47
f 57//48 47//48 60//48
f 38//49 51//49 53//49
f 51//50 45//50 59//50
f 55//51 44//51 57//51
f 42//38 38//38 56//38
f 60//52 50//52 56//52
f 40//40 44//40 54//40
f 45//53 40//53 58//53
o Wing
v -7.216637 -1.956172 0.366889
v -11.381957 6.034582 0.782174
v -15.128891 6.034582 0.782174
v -8.180376 -1.956172 0.366889
v -7.216637 -1.884487 -1.012434
v -8.180376 -1.884487 -1.012434
v -15.128891 6.106266 -0.597150
v -11.381957 6.106266 -0.597150
v -5.188161 -1.923087 -0.269721
v -5.188167 -1.884483 -1.012434
v -5.188167 3.284928 -0.743777
v -5.188167 5.320576 0.106737
v -15.098448 8.974216 0.296619
v -20.216543 11.160185 0.410225
v -11.476130 -1.923087 -0.269721
v -8.180376 -16.400133 -1.766822
v -10.444174 -16.438734 -1.024109
v -9.034339 -17.791183 -1.094396
v -7.216637 -17.824268 -0.457786
v -8.180370 -16.471819 -0.387499
v -5.508830 -21.157345 -1.269338
v -5.188161 -20.110142 -0.576585
v -6.073826 -19.312153 -0.535113
v -6.394494 -20.359354 -1.227866
v -8.838129 4.572384 -0.676867
v -10.393933 6.720453 0.179489
v -6.073831 -1.884487 -1.012434
v -5.188161 -1.956172 0.366889
v -5.188161 3.213243 0.635547
v -8.838124 4.500700 0.702457
v -6.073826 -1.956172 0.366889
v -6.073826 -19.240467 -1.914436
v -7.216637 -17.752583 -1.837110
v -5.188161 -20.038450 -1.955908
v 7.216637 -1.956172 0.366889
v 8.180376 -1.956172 0.366889
v 15.128891 6.034582 0.782174
v 11.381957 6.034582 0.782174
v 7.216637 -1.884487 -1.012434
v 11.381957 6.106266 -0.597150
v 15.128891 6.106266 -0.597150
v 8.180376 -1.884487 -1.012434
v 5.188161 -1.923087 -0.269721
v 5.188167 5.320576 0.106737
v 5.188167 3.284928 -0.743777
v 5.188167 -1.884483 -1.012434
v 15.098448 8.974216 0.296619
v 20.216543 11.160185 0.410225
v 11.476130 -1.923087 -0.269721
v 10.444174 -16.438734 -1.024109
v 8.180376 -16.400133 -1.766822
v 9.034339 -17.791183 -1.094396
v 8.180370 -16.471819 -0.387499
v 7.216637 -17.824268 -0.457786
v 5.508830 -21.157345 -1.269338
v 6.394494 -20.359354 -1.227866
v 6.073826 -19.312153 -0.535113
v 5.188161 -20.110142 -0.576585
v 10.393933 6.720453 0.179489
v 8.838129 4.572384 -0.676867
v 6.073831 -1.884487 -1.012434
v 5.188161 -1.956172 0.366889
v 6.073826 -1.956172 0.366889
v 8.838124 4.500700 0.702457
v 5.188161 3.213243 0.635547
v 6.073826 -19.240467 -1.914436
v 7.216637 -17.752583 -1.837110
v 5.188161 -20.038450 -1.955908
vn 0.000000 -0.051900 0.998700
vn 0.000000 0.051900 -0.998700
vn 1.000000 0.000000 -0.000000
vn 0.071800 0.296100 -0.952500
vn 0.000000 0.297500 -0.954700
vn 0.035400 0.297000 -0.954200
vn -0.229700 0.036500 -0.972600
vn -0.312100 0.049300 -0.948800
vn -0.299300 0.047300 -0.953000
vn -0.285800 -0.302200 0.909400
vn -0.322100 -0.276600 0.905400
vn -0.295300 -0.295600 0.908500
vn -0.355500 -0.437500 0.825900
vn 0.114200 0.396800 -0.910800
vn 0.118200 0.382800 -0.916200
vn 0.107200 0.420700 -0.900800
vn -0.390200 -0.381100 0.838200
vn -0.454300 -0.390600 0.800700
vn -0.340600 -0.372700 0.863200
vn 0.277900 0.549400 -0.788000
vn 0.295000 0.530500 -0.794700
vn 0.271600 0.556300 -0.785400
vn -0.373400 -0.206800 -0.904300
vn -0.216200 -0.137800 -0.966600
vn -0.231200 -0.144400 -0.962100
vn 0.928400 -0.034400 0.369900
vn 0.999900 -0.001000 0.010500
vn 0.905800 0.007100 -0.423700
vn 0.903300 0.007200 -0.429000
vn 0.999900 0.000200 -0.010600
vn -0.329500 -0.270800 0.904500
vn -0.344300 -0.276600 0.897200
vn -0.200400 -0.218300 0.955100
vn 0.249800 0.410700 0.876900
vn 0.229800 0.434300 0.871000
vn 0.243700 0.418000 0.875200
vn -0.433200 -0.332400 -0.837800
vn -0.353000 -0.317100 -0.880300
vn -0.383400 -0.323100 -0.865200
vn 0.099700 0.254900 0.961800
vn 0.090800 0.288200 0.953200
vn 0.093700 0.277700 0.956100
vn -0.395200 -0.395500 -0.829100
vn -0.324500 -0.242700 -0.914200
vn -0.296800 -0.261700 -0.918400
vn -0.336000 -0.234700 -0.912200
vn -0.198200 -0.063000 0.978100
vn -0.189900 -0.064400 0.979700
vn -0.259800 -0.052000 0.964300
vn 0.062100 0.162000 0.984800
vn 0.090700 0.161400 0.982700
vn 0.030600 0.162600 0.986200
vn -1.000000 0.000000 -0.000000
vn -0.071800 0.296100 -0.952500
vn -0.104900 0.294900 -0.949800
vn -0.035400 0.297000 -0.954200
vn 0.299300 0.047300 -0.953000
vn 0.312100 0.049300 -0.948800
vn 0.229700 0.036500 -0.972600
vn 0.285800 -0.302200 0.909400
vn 0.260900 -0.319300 0.911000
vn 0.295300 -0.295600 0.908500
vn 0.355500 -0.437500 0.825900
vn -0.114200 0.396800 -0.910800
vn -0.103700 0.432200 -0.895800
vn -0.107200 0.420700 -0.900800
vn 0.390200 -0.381100 0.838200
vn 0.313400 -0.367600 0.875600
vn 0.340600 -0.372700 0.863200
vn -0.277900 0.549400 -0.788000
vn -0.255400 0.573500 -0.778400
vn -0.271600 0.556300 -0.785400
vn 0.231200 -0.144400 -0.962100
vn 0.216200 -0.137800 -0.966600
vn 0.373400 -0.206800 -0.904300
vn -0.999900 -0.001000 0.010500
vn -0.928400 -0.034400 0.369900
vn -0.905800 0.007100 -0.423700
vn -0.999900 0.000200 -0.010600
vn 0.329500 -0.270800 0.904500
vn 0.187400 -0.212800 0.959000
vn 0.200400 -0.218300 0.955100
vn -0.243700 0.418000 0.875200
vn -0.229800 0.434300 0.871000
vn -0.249800 0.410700 0.876900
vn 0.383400 -0.323100 -0.865200
vn 0.353000 -0.317100 -0.880300
vn 0.433200 -0.332400 -0.837800
vn -0.093700 0.277700 0.956100
vn -0.090800 0.288200 0.953200
vn -0.099700 0.254900 0.961800
vn 0.395200 -0.395500 -0.829100
vn 0.336000 -0.234700 -0.912200
vn 0.296800 -0.261700 -0.918400
vn 0.324500 -0.242700 -0.914200
vn 0.198200 -0.063000 0.978100
vn 0.271100 -0.050000 0.961300
vn 0.259800 -0.052000 0.964300
vn -0.030600 0.162600 0.986200
vn -0.090700 0.161400 0.982700
vn -0.062100 0.162000 0.984800
vn 0.104900 0.294900 -0.949800
vn -0.220100 0.035000 -0.974800
vn -0.260900 -0.319300 0.911000
vn 0.103700 0.432200 -0.895800
vn -0.313400 -0.367600 0.875600
vn 0.255400 0.573500 -0.778400
vn -0.389800 -0.213900 -0.895700
vn 0.926100 -0.035000 0.375600
vn -0.187400 -0.212800 0.959000
vn 0.264500 0.392900 0.880700
vn -0.501200 -0.343700 -0.794200
vn 0.103100 0.242100 0.964800
vn -0.365600 -0.213500 -0.905900
vn -0.271100 -0.050000 0.961300
vn 0.000000 0.163000 0.986600
vn 0.220100 0.035000 -0.974800
vn 0.322100 -0.276600 0.905400
vn -0.118200 0.382800 -0.916200
vn 0.454300 -0.390600 0.800700
vn -0.295000 0.530500 -0.794700
vn 0.389800 -0.213900 -0.895700
vn -0.926100 -0.035000 0.375600
vn -0.903300 0.007200 -0.429000
vn 0.344300 -0.276600 0.897200
vn -0.264500 0.392900 0.880700
vn 0.501200 -0.343700 -0.794200
vn -0.103100 0.242100 0.964800
vn 0.365600 -0.213500 -0.905900
vn 0.189900 -0.064400 0.979700
usemtl Material.001
s 1
f 62//54 63//54 64//54
f 66//55 67//55 68//55
f 69//56 70//56 71//56
f 73//57 68//58 67//59
f 66//60 76//61 77//62
f 78//63 79//64 80//65
f 82//66 83//66 84//66
f 72//67 71//68 85//69
f 87//55 85//55 71//55
f 89//54 90//54 91//54
f 84//70 83//71 79//72
f 86//73 85//74 68//75
f 65//55 68//55 85//55
f 90//54 62//54 61//54
f 91//54 61//54 79//54
f 93//55 65//55 87//55
f 88//54 91//54 83//54
f 92//55 87//55 70//55
f 67//76 66//77 75//78
f 94//79 70//56 69//80
f 76//55 66//55 65//55
f 61//54 64//54 80//54
f 82//81 81//82 69//83
f 63//84 74//85 75//86
f 86//87 73//88 62//89
f 84//90 78//91 93//92
f 72//93 86//94 90//95
f 94//96 81//96 84//96
f 78//97 77//98 76//99
f 64//100 75//101 77//102
f 73//103 74//104 63//105
f 69//56 72//56 89//56
f 96//54 97//54 98//54
f 100//55 101//55 102//55
f 103//106 104//106 105//106
f 107//107 108//108 101//109
f 110//110 111//111 102//112
f 112//113 110//114 113//115
f 116//116 117//116 118//116
f 104//117 119//118 120//119
f 105//55 120//55 121//55
f 123//54 124//54 125//54
f 116//120 112//121 114//122
f 119//123 107//124 100//125
f 120//55 100//55 99//55
f 95//54 98//54 124//54
f 114//54 95//54 123//54
f 121//55 99//55 127//55
f 117//54 123//54 122//54
f 106//55 121//55 126//55
f 109//126 102//127 101//128
f 103//129 106//106 128//130
f 99//55 102//55 111//55
f 113//54 96//54 95//54
f 118//131 122//106 103//132
f 97//133 96//134 109//135
f 98//136 107//137 119//138
f 127//139 112//140 116//141
f 124//142 119//143 104//144
f 128//145 126//145 116//145
f 111//146 110//147 112//148
f 96//149 113//150 110//151
f 97//152 108//153 107//154
f 125//106 104//106 103//106
f 61//54 62//54 64//54
f 65//55 66//55 68//55
f 72//56 69//56 71//56
f 74//155 73//57 67//59
f 75//156 66//60 77//62
f 77//157 78//63 80//65
f 81//66 82//66 84//66
f 86//158 72//67 85//69
f 70//55 87//55 71//55
f 88//54 89//54 91//54
f 78//159 84//70 79//72
f 73//160 86//73 68//75
f 87//55 65//55 85//55
f 91//54 90//54 61//54
f 83//54 91//54 79//54
f 92//55 93//55 87//55
f 82//54 88//54 83//54
f 94//55 92//55 70//55
f 74//161 67//76 75//78
f 81//162 94//79 69//80
f 93//55 76//55 65//55
f 79//54 61//54 80//54
f 88//56 82//81 69//83
f 64//163 63//84 75//86
f 90//164 86//87 62//89
f 92//165 84//90 93//92
f 89//166 72//93 90//95
f 92//96 94//96 84//96
f 93//167 78//97 76//99
f 80//168 64//100 77//102
f 62//169 73//103 63//105
f 88//56 69//56 89//56
f 95//54 96//54 98//54
f 99//55 100//55 102//55
f 106//106 103//106 105//106
f 100//58 107//107 101//109
f 109//170 110//110 102//112
f 114//171 112//113 113//115
f 115//116 116//116 118//116
f 105//172 104//117 120//119
f 106//55 105//55 121//55
f 122//54 123//54 125//54
f 117//173 116//120 114//122
f 120//174 119//123 100//125
f 121//55 120//55 99//55
f 123//54 95//54 124//54
f 117//54 114//54 123//54
f 126//55 121//55 127//55
f 118//54 117//54 122//54
f 128//55 106//55 126//55
f 108//175 109//126 101//128
f 115//176 103//129 128//130
f 127//55 99//55 111//55
f 114//54 113//54 95//54
f 115//177 118//131 103//132
f 108//178 97//133 109//135
f 124//179 98//136 119//138
f 126//180 127//139 116//141
f 125//181 124//142 104//144
f 115//145 128//145 116//145
f 127//182 111//146 112//148
f 109//183 96//149 110//151
f 98//169 97//152 107//154
f 122//106 125//106 103//106
