# Blender v2.71 (sub 0) OBJ File: 'skybox.blend'
# www.blender.org
mtllib skybox.mtl
v -172.365173 -172.365173 172.365173
v -172.365173 -172.365173 -172.365173
v 172.365173 -172.365173 -172.365173
v 172.365173 -172.365173 172.365173
v -172.365173 172.365173 172.365173
v -172.365173 172.365173 -172.365173
v 172.365173 172.365173 -172.365173
v 172.365173 172.365173 172.365173
vt 0.501886 0.333206
vt 0.249360 0.331545
vt 0.248130 0.664190
vt 0.250828 0.334055
vt 0.001128 0.334770
vt 0.001659 0.664591
vt 1.002105 0.330858
vt 0.754013 0.332972
vt 0.755609 0.665899
vt 0.756845 0.331962
vt 0.502796 0.331962
vt 0.502796 0.664896
vt 0.498381 0.331382
vt 0.498381 -0.001552
vt 0.252866 -0.001552
vt 0.253408 0.664262
vt 0.253408 0.997196
vt 0.500498 0.997196
vt 0.500655 0.665851
vt 0.251359 0.663877
vt 1.003701 0.663785
vt 0.756845 0.664896
vt 0.252866 0.331382
vt 0.500498 0.664262
vn 1.000000 0.000000 0.000000
vn 0.000000 0.000000 1.000000
vn -1.000000 0.000000 0.000000
vn 0.000000 0.000000 -1.000000
vn 0.000000 1.000000 0.000000
vn 0.000000 -1.000000 0.000000
usemtl None
s off
f 1/1/1 2/2/1 6/3/1
f 2/4/2 3/5/2 7/6/2
f 3/7/3 4/8/3 8/9/3
f 4/10/4 1/11/4 5/12/4
f 4/13/5 3/14/5 2/15/5
f 5/16/6 6/17/6 7/18/6
f 5/19/1 1/1/1 6/3/1
f 6/20/2 2/4/2 7/6/2
f 7/21/3 3/7/3 8/9/3
f 8/22/4 4/10/4 5/12/4
f 1/23/5 4/13/5 2/15/5
f 8/24/6 5/16/6 7/18/6
